<?xml version="1.0" standalone="no"?>
<!DOCTYPE svg PUBLIC "-//W3C//DTD SVG 20010904//EN"
 "http://www.w3.org/TR/2001/REC-SVG-20010904/DTD/svg10.dtd">
<svg version="1.0" xmlns="http://www.w3.org/2000/svg"
 width="512.000000pt" height="512.000000pt" viewBox="0 0 512.000000 512.000000"
 preserveAspectRatio="xMidYMid meet">
<metadata>
Created by potrace 1.14, written by Peter Selinger 2001-2017
</metadata>
<g transform="translate(0.000000,512.000000) scale(0.100000,-0.100000)"
fill="#000000" stroke="none">
<path d="M1385 4869 c-72 -20 -95 -73 -95 -217 l0 -108 -77 -37 c-43 -20 -101
-54 -129 -76 l-52 -39 -58 35 c-33 20 -96 55 -142 79 -68 36 -88 43 -119 38
-70 -11 -85 -28 -192 -221 -103 -186 -93 -225 89 -328 47 -27 96 -54 110 -62
24 -12 25 -13 25 -165 0 -141 -2 -154 -20 -170 -11 -10 -23 -17 -28 -18 -4 0
-26 -12 -48 -26 -23 -14 -62 -37 -87 -51 -62 -34 -82 -52 -97 -88 -25 -59 -11
-95 116 -311 43 -72 58 -89 93 -104 60 -27 98 -18 206 50 8 6 46 27 84 49 l69
39 51 -40 c28 -21 86 -56 128 -76 l78 -37 0 -462 c0 -364 -3 -463 -12 -464
-21 -1 -134 -61 -193 -103 l-55 -38 -133 76 c-77 44 -144 76 -160 76 -58 0
-107 -33 -146 -101 -86 -145 -130 -230 -135 -258 -7 -46 19 -106 57 -134 34
-24 36 -25 142 -82 99 -53 105 -60 94 -98 -5 -17 -7 -83 -5 -147 l3 -116 -116
-68 c-141 -81 -144 -83 -163 -121 -24 -48 -14 -99 34 -178 43 -73 90 -155 109
-192 18 -36 72 -65 119 -65 36 0 65 13 171 75 l128 75 68 -46 c38 -26 96 -60
131 -76 l62 -28 0 -115 c0 -114 5 -137 40 -176 34 -37 61 -42 230 -41 192 1
191 1 230 31 44 32 52 61 52 194 0 65 3 115 6 112 7 -7 166 79 213 116 l38 30
123 -72 c185 -108 235 -107 313 11 25 37 45 70 45 73 0 3 21 41 46 83 57 97
65 153 30 205 -21 31 -59 56 -225 151 l-43 24 -1 154 0 154 39 21 c117 63 279
150 404 218 30 16 78 42 105 57 59 32 240 128 273 146 21 11 30 7 87 -32 34
-24 93 -58 129 -75 l66 -31 0 -106 c0 -129 14 -167 75 -197 37 -19 58 -21 213
-20 156 1 175 3 199 21 60 45 67 64 67 189 l1 115 52 21 c29 12 87 45 130 75
69 47 80 52 98 40 11 -7 67 -40 125 -74 172 -100 225 -88 312 68 14 25 44 78
68 119 48 84 57 124 40 175 -13 41 -35 58 -179 143 -80 46 -105 66 -104 80 6
42 5 201 -1 240 l-7 42 68 39 c37 22 95 54 128 72 33 18 65 38 71 44 17 18 36
85 32 114 -2 15 -41 93 -88 174 -76 135 -87 150 -127 169 -61 29 -90 21 -235
-64 l-123 -73 -82 56 c-45 30 -103 64 -130 74 l-48 19 0 106 c0 123 -12 162
-62 195 -32 22 -44 24 -201 24 -92 1 -181 -3 -198 -9 -17 -5 -44 -23 -59 -39
-28 -30 -29 -33 -31 -151 -1 -66 -4 -121 -6 -123 -1 -1 -41 -21 -88 -44 -47
-24 -103 -58 -124 -76 l-39 -33 -46 25 c-51 27 -170 91 -246 132 -27 15 -90
49 -140 76 -49 26 -121 65 -160 86 -38 21 -113 60 -165 88 l-95 51 1 156 1
157 124 69 c68 38 133 81 144 96 13 18 20 42 20 76 0 44 -8 64 -72 174 -40 68
-73 126 -73 130 0 12 -53 56 -80 68 -55 22 -82 12 -272 -100 l-76 -46 -53 40
c-29 22 -88 56 -130 77 l-77 37 1 95 c1 145 -13 188 -73 220 -28 15 -335 22
-385 9z m990 -1879 c157 -83 227 -121 270 -145 22 -12 74 -40 115 -62 221
-118 198 -101 189 -141 -4 -19 -6 -88 -5 -153 l3 -118 -63 -33 c-35 -18 -76
-40 -91 -48 -16 -8 -76 -41 -135 -73 -59 -31 -129 -69 -155 -83 -59 -32 -150
-82 -223 -121 -30 -16 -83 -45 -116 -63 l-62 -33 -49 36 c-27 19 -85 54 -129
76 l-81 41 0 458 0 458 71 32 c39 18 97 52 129 76 l58 44 87 -47 c48 -26 132
-71 187 -101z"/>
</g>
</svg>
